# xmcd CD database file
# Generated: Tue Apr 2 14:14:33 2002 by KSCD
# 
# Track frame offsets:
#       180
#       11653
#       26335
#       36967
#       47040
#       69344
#       83619
#       105800
#       124574
#       138345
#       155020
#       167165
#       180197
#       194892
#       207450
#       226463
#
# Disc length: 3221 seconds
#
# Revision: 1
# Processed by: cddbd v1.4PL0 Copyright (c) Steve Scherf et al.
# Submitted via: Kscd 1.3.2
#
DISCID=cc0c9310
DTITLE=music/±´¶à·Ò
DYEAR=1900
DGENRE=
TTITLE0=´¬¸è
TTITLE1=
TTITLE2=
TTITLE3=
TTITLE4=
TTITLE5=
TTITLE6=
TTITLE7=
TTITLE8=
TTITLE9=
TTITLE10=
TTITLE11=
TTITLE12=
TTITLE13=
TTITLE14=
TTITLE15=
EXTD=
EXTT0=
EXTT1=
EXTT2=
EXTT3=
EXTT4=
EXTT5=
EXTT6=
EXTT7=
EXTT8=
EXTT9=
EXTT10=
EXTT11=
EXTT12=
EXTT13=
EXTT14=
EXTT15=
PLAYORDER=
